<svg width="30" height="24" viewBox="0 0 30 24" fill="none" xmlns="http://www.w3.org/2000/svg">
<path d="M11.3108 8.6622C10.7211 8.65465 10.153 8.47978 9.70346 8.16748C8.76579 7.4639 8.19773 6.49046 8.11853 5.45152C7.87117 3.3752 9.25556 2.15006 10.7509 2.01347C11.1112 1.98078 11.4759 2.00774 11.8232 2.09273C12.1705 2.17772 12.4934 2.31901 12.7725 2.50819C13.1891 2.81537 13.5272 3.18691 13.7676 3.60142C14.008 4.01593 14.1459 4.46523 14.1732 4.92349C14.4013 6.85906 13.31 8.6622 11.3108 8.6622ZM10.9769 3.66503C10.3896 3.71833 10.0394 4.40045 10.1452 5.28578C10.1747 5.88055 10.4746 6.44488 10.9861 6.86822C11.083 6.94609 11.2117 6.9918 11.3474 6.99648C11.7047 6.964 12.2799 6.21275 12.1445 5.0809C11.7963 3.52678 11.0023 3.66503 10.9769 3.6692V3.66503ZM6.22108 13.6594C5.63143 13.6518 5.06329 13.4769 4.61376 13.1646C3.67609 12.4611 3.10803 11.4876 3.02882 10.4487C2.78146 8.37236 4.16586 7.14723 5.66122 7.01064C6.0215 6.97833 6.38604 7.00547 6.73328 7.09045C7.08052 7.17542 7.40341 7.3165 7.68285 7.50536C8.09936 7.81254 8.43754 8.18408 8.67792 8.59859C8.91831 9.01309 9.05615 9.4624 9.08353 9.92065C9.31155 11.8562 8.1684 13.6594 6.22108 13.6594ZM5.8872 8.6622C5.29985 8.7155 4.94968 9.39762 5.05554 10.2829C5.08503 10.8777 5.38489 11.4421 5.89636 11.8654C5.99421 11.9421 6.12241 11.9876 6.25773 11.9936C6.61503 11.9612 7.19016 11.2099 7.05478 10.0781C6.78502 8.55559 5.91265 8.6622 5.8872 8.66636V8.6622ZM19.1204 8.6622C17.3818 8.67219 16.032 6.85822 16.2631 4.92099C16.2904 4.46273 16.4283 4.01343 16.6687 3.59892C16.9091 3.18441 17.2472 2.81288 17.6638 2.50569C17.9427 2.31764 18.2648 2.17721 18.6112 2.09267C18.9575 2.00813 19.321 1.9812 19.6803 2.01347C21.1756 2.15006 22.56 3.3752 22.3127 5.45152C22.2337 6.49075 21.6657 7.46452 20.7278 8.16831C20.2781 8.48031 19.7099 8.65488 19.1204 8.6622ZM18.2898 5.0809C18.1544 6.20942 18.7295 6.96066 19.0868 6.99648C19.22 6.99219 19.3469 6.9494 19.4451 6.87571C19.9566 6.45238 20.2565 5.88805 20.286 5.29328C20.4997 3.11035 18.473 3.25277 18.2898 5.0809ZM24.2101 13.6594C22.3147 13.6594 21.1217 11.8554 21.3528 9.91815C21.3801 9.4599 21.518 9.0106 21.7584 8.59609C21.9988 8.18158 22.3369 7.81004 22.7535 7.50286C23.032 7.31413 23.354 7.17309 23.7004 7.08811C24.0468 7.00312 24.4105 6.97593 24.77 7.00814C26.2653 7.14473 27.6497 8.36987 27.4024 10.4462C27.3234 11.4854 26.7554 12.4592 25.8175 13.163C25.3682 13.4759 24.8 13.6514 24.2101 13.6594ZM23.3795 10.0781C23.2441 11.2066 23.8192 11.9578 24.1765 11.9936C24.3093 11.9879 24.4357 11.9453 24.5349 11.8729C25.0463 11.4495 25.3462 10.8852 25.3757 10.2904C25.4775 9.40511 25.1314 8.723 24.544 8.6697C24.5186 8.6622 23.4762 8.58807 23.3795 10.0781ZM19.2874 21.988C18.4172 22.0022 17.5579 21.8281 16.7965 21.4833C16.3091 21.2732 15.7665 21.1634 15.2156 21.1634C14.6647 21.1634 14.1221 21.2732 13.6347 21.4833C10.5677 22.89 6.99268 21.3442 7.07208 17.8237C7.07208 13.9634 11.6599 10.3279 15.2156 10.3279C18.7713 10.3279 23.3591 13.9625 23.3591 17.8237C23.3591 20.2756 21.6846 21.988 19.2874 21.988ZM15.2156 19.4894C16.0856 19.4754 16.9447 19.6492 17.7065 19.9933C19.9836 21.0077 21.3589 19.6327 21.3232 17.8237C21.3232 15.0086 17.7391 11.9936 15.2156 11.9936C12.6921 11.9936 9.10796 15.0086 9.10796 17.8237C9.07539 19.6302 10.4394 21.0077 12.7247 19.9933C13.4865 19.6492 14.3456 19.4754 15.2156 19.4894Z" fill="#191919"/>
</svg>
