<svg width="24" height="24" viewBox="0 0 24 24" fill="none" xmlns="http://www.w3.org/2000/svg">
<path d="M12 12C13.0548 12 14.086 11.7068 14.963 11.1573C15.8401 10.6079 16.5237 9.82705 16.9274 8.91342C17.331 7.99979 17.4367 6.99445 17.2309 6.02455C17.0251 5.05464 16.5171 4.16373 15.7712 3.46447C15.0254 2.76521 14.0751 2.289 13.0405 2.09608C12.0059 1.90315 10.9336 2.00217 9.95902 2.3806C8.98449 2.75904 8.15153 3.3999 7.5655 4.22215C6.97946 5.0444 6.66667 6.01109 6.66667 7C6.66808 8.32568 7.23044 9.59668 8.23033 10.5341C9.23021 11.4715 10.5859 11.9987 12 12ZM12 3.66667C12.7032 3.66667 13.3907 3.86216 13.9754 4.22844C14.5601 4.59471 15.0158 5.1153 15.2849 5.72439C15.554 6.33348 15.6244 7.0037 15.4872 7.6503C15.3501 8.2969 15.0114 8.89085 14.5142 9.35702C14.0169 9.8232 13.3834 10.1407 12.6937 10.2693C12.0039 10.3979 11.289 10.3319 10.6394 10.0796C9.98966 9.82731 9.43436 9.40006 9.04367 8.8519C8.65298 8.30374 8.44445 7.65927 8.44445 7C8.44445 6.11595 8.81905 5.2681 9.48585 4.64298C10.1526 4.01786 11.057 3.66667 12 3.66667Z" fill="#191919"/>
<path d="M12 13.6667C9.87899 13.6689 7.84553 14.4598 6.34574 15.8658C4.84596 17.2718 4.00235 19.1782 4 21.1667C4 21.3877 4.09365 21.5996 4.26035 21.7559C4.42705 21.9122 4.65314 22 4.88889 22C5.12464 22 5.35073 21.9122 5.51743 21.7559C5.68413 21.5996 5.77778 21.3877 5.77778 21.1667C5.77778 19.6196 6.43333 18.1358 7.60022 17.0419C8.76712 15.9479 10.3498 15.3333 12 15.3333C13.6502 15.3333 15.2329 15.9479 16.3998 17.0419C17.5667 18.1358 18.2222 19.6196 18.2222 21.1667C18.2222 21.3877 18.3159 21.5996 18.4826 21.7559C18.6493 21.9122 18.8754 22 19.1111 22C19.3469 22 19.573 21.9122 19.7397 21.7559C19.9064 21.5996 20 21.3877 20 21.1667C19.9976 19.1782 19.154 17.2718 17.6543 15.8658C16.1545 14.4598 14.121 13.6689 12 13.6667Z" fill="#191919"/>
</svg>
